<?xml version="1.0" encoding="utf-8"?>
<!-- Generator: Adobe Illustrator 14.0.0, SVG Export Plug-In . SVG Version: 6.00 Build 43363)  -->
<!DOCTYPE svg PUBLIC "-//W3C//DTD SVG 1.0//EN" "http://www.w3.org/TR/2001/REC-SVG-20010904/DTD/svg10.dtd">
<svg version="1.0" id="Layer_1" xmlns="http://www.w3.org/2000/svg" xmlns:xlink="http://www.w3.org/1999/xlink" x="0px" y="0px"
	 width="82.75px" height="97.875px" viewBox="0 0 82.75 97.875" enable-background="new 0 0 82.75 97.875" xml:space="preserve">
<path fill="#F0515D" stroke="#000000" stroke-width="2" d="M81.184,89.947c0,3.601-2,5.601-5.68,5.601H6.169
	c-2.031,0-3.68,0-3.68-3.601V5.685c0-3.6,1.648-3.6,3.68-3.6h69.335c3.68,0,5.68,2,5.68,5.6V89.947z"/>
<path fill="#BE1E2D" stroke="#000000" stroke-width="2" d="M6.169,95.548c-2.031,0-3.68,0-3.68-3.601V5.685
	c0-3.6,1.648-3.6,3.68-3.6h7.459v93.463H6.169z"/>
<path fill="none" stroke="#000000" stroke-width="2" d="M20.985,9.169H72.3c1.905,0,2.449,1.129,2.449,2.521v74.767
	c0,1.393-0.544,2.521-2.449,2.521H20.985"/>
<g enable-background="new    ">
	<g>
		<path fill="#FBB040" d="M50.643,49.846c-1.086-0.092-2.075-0.139-2.942-0.139c-1.716,0.052-3.445,0.099-5.176,0.141l-0.214,0.005
			l-0.423-0.423v-1.227l0.414-0.415l0.202-0.003c1.467-0.026,1.925-0.093,2.067-0.131c0.066-0.17,0.034-0.388-0.118-0.782
			l-1.794-4.446h-8.378l-1.574,3.696c-0.359,0.854-0.413,1.233-0.413,1.382c0,0.032,0,0.066,0.125,0.121
			c0.077,0.035,0.444,0.147,1.926,0.16l0.188,0.001l0.449,0.399v1.244L34.55,49.86l-0.225-0.014c-1.316-0.082-2.494-0.124-3.5-0.124
			c-1.138,0-2.293,0.042-3.433,0.124l-0.21,0.015l-0.466-0.414v-1.262l0.448-0.398l0.187-0.002c0.963-0.012,1.248-0.07,1.326-0.094
			c0.128-0.04,0.243-0.122,0.353-0.252c0.064-0.076,0.287-0.411,0.967-1.879l1.64-3.562l4.247-9.618
			c0.799-1.877,1.595-3.763,2.387-5.648l0.128-0.306h1.679l7.692,18.085c0.256,0.583,0.553,1.224,0.889,1.915
			c0.434,0.895,0.578,1.069,0.603,1.095c0.074,0.072,0.177,0.132,0.3,0.175c0.037,0.013,0.258,0.076,1.132,0.089l0.202,0.003
			l0.415,0.415v1.227l-0.436,0.436L50.643,49.846z M41.638,40.082l-3.176-7.629l-3.227,7.629H41.638z"/>
		<path d="M39.747,26.926l6.672,15.688l0.891,2.094c0.261,0.594,0.56,1.24,0.898,1.938c0.339,0.698,0.573,1.109,0.703,1.234
			s0.292,0.222,0.484,0.289c0.192,0.068,0.622,0.107,1.289,0.117l0.125,0.125v0.813l-0.125,0.125
			c-1.104-0.094-2.099-0.141-2.984-0.141c-1.729,0.052-3.458,0.099-5.188,0.141l-0.125-0.125V48.41l0.125-0.125
			c1.167-0.021,1.896-0.07,2.188-0.148s0.438-0.258,0.438-0.539c0-0.229-0.073-0.531-0.219-0.906l-1.922-4.766H33.95l-1.703,4
			c-0.302,0.719-0.453,1.245-0.453,1.578c0,0.261,0.141,0.453,0.422,0.578s0.989,0.193,2.125,0.203l0.141,0.125v0.813l-0.125,0.125
			c-1.344-0.084-2.521-0.125-3.531-0.125c-1.146,0-2.302,0.041-3.469,0.125l-0.141-0.125V48.41l0.141-0.125
			c0.76-0.01,1.25-0.049,1.469-0.117c0.219-0.067,0.414-0.203,0.586-0.406s0.518-0.867,1.039-1.992l1.641-3.563l4.25-9.625
			c0.802-1.885,1.599-3.771,2.391-5.656H39.747 M34.481,40.582h7.906l-3.922-9.422L34.481,40.582 M40.409,25.926h-0.662h-1.016
			h-0.665l-0.257,0.613c-0.792,1.884-1.588,3.769-2.389,5.652l-4.244,9.613l-1.634,3.548c-0.666,1.438-0.867,1.728-0.9,1.772
			c-0.038,0.045-0.081,0.08-0.111,0.089c-0.021,0.005-0.256,0.061-1.187,0.073l-0.373,0.005l-0.279,0.248l-0.141,0.125l-0.335,0.298
			v0.449v0.813v0.449l0.335,0.298l0.141,0.125l0.315,0.28l0.421-0.03c1.128-0.081,2.271-0.122,3.397-0.122
			c0.996,0,2.163,0.041,3.469,0.123l0.451,0.028l0.319-0.319l0.125-0.125l0.293-0.293v-0.414V48.41v-0.449l-0.335-0.298
			l-0.141-0.125l-0.281-0.249l-0.375-0.003c-0.815-0.007-1.263-0.045-1.501-0.077c0.049-0.186,0.143-0.472,0.321-0.895l1.442-3.388
			h7.711l1.669,4.14c0.022,0.057,0.041,0.109,0.058,0.156c-0.285,0.024-0.763,0.05-1.554,0.064l-0.404,0.007l-0.285,0.286
			l-0.125,0.125l-0.293,0.293v0.414v0.813v0.414l0.293,0.293l0.125,0.125l0.303,0.303l0.429-0.01
			c1.731-0.042,3.462-0.089,5.193-0.141c0.822,0,1.798,0.046,2.869,0.137l0.464,0.04l0.328-0.329l0.125-0.125l0.293-0.293v-0.414
			V48.41v-0.414l-0.293-0.293l-0.125-0.125l-0.287-0.287l-0.405-0.006c-0.763-0.011-0.966-0.06-0.987-0.065
			c-0.03-0.011-0.063-0.027-0.087-0.044c-0.046-0.067-0.192-0.299-0.518-0.967c-0.322-0.663-0.619-1.303-0.882-1.903l-0.887-2.083
			l-6.671-15.688L40.409,25.926L40.409,25.926z M35.99,39.582l2.468-5.837l2.43,5.837H35.99L35.99,39.582z"/>
	</g>
	<g>
		<path fill="#FBB040" d="M56.841,50.113c-0.908,0-1.707-0.171-2.373-0.507c-0.685-0.345-1.217-0.836-1.582-1.459
			c-0.361-0.616-0.545-1.364-0.545-2.221c0-1.672,0.539-3.003,1.604-3.958c1.008-0.904,3.518-1.643,7.668-2.255
			c-0.056-1.16-0.345-1.985-0.859-2.458c-0.598-0.548-1.392-0.814-2.428-0.814c-0.543,0-1.041,0.08-1.48,0.236
			c-0.516,0.186-0.632,0.275-0.644,0.284c0.012,0.001-0.133,0.291-0.759,1.782l-0.055,0.131l-0.414,0.296l-0.997-0.255l-0.339-0.424
			v-2.365l0.202-0.15c1.934-1.434,3.853-2.161,5.704-2.161c1.278,0,2.365,0.248,3.23,0.736c0.872,0.494,1.517,1.127,1.915,1.882
			c0.391,0.741,0.589,1.61,0.589,2.585L65.2,42.172v4.644c0,0.721,0.061,0.894,0.067,0.911c0.03,0.042,0.06,0.056,0.06,0.056
			c0.011,0.004,0.115,0.043,0.501,0.082l1.082,0.095l0.384,0.432v1.022l-0.436,0.436l-0.23-0.02
			c-0.743-0.061-1.444-0.092-2.084-0.092c-0.61,0-1.355,0.031-2.215,0.093l-0.217,0.016l-0.559-0.521l0.042-1.684l-2.625,2.047
			l-0.063,0.025C58.275,49.979,57.58,50.113,56.841,50.113L56.841,50.113z M61.622,41.692c-3.073,0.551-4.225,1.049-4.645,1.377
			c-0.597,0.467-0.887,1.192-0.887,2.216c0,1.34,0.593,1.938,1.922,1.938c1.187,0,2.4-0.704,3.609-2.091V41.692z"/>
		<path d="M59.544,34.316c1.198,0,2.192,0.225,2.984,0.672c0.792,0.448,1.364,1.008,1.719,1.68s0.531,1.456,0.531,2.352L64.7,42.16
			v4.656c0,0.636,0.044,1.021,0.133,1.156c0.089,0.136,0.19,0.227,0.305,0.273s0.328,0.086,0.641,0.117l0.891,0.078l0.125,0.141
			v0.625l-0.125,0.125c-0.761-0.063-1.469-0.094-2.125-0.094c-0.625,0-1.375,0.031-2.25,0.094l-0.234-0.219l0.063-2.516
			l-3.406,2.656c-0.573,0.239-1.198,0.359-1.875,0.359c-0.833,0-1.55-0.151-2.148-0.453s-1.058-0.724-1.375-1.266
			c-0.317-0.541-0.477-1.197-0.477-1.969c0-1.531,0.479-2.727,1.438-3.586s3.573-1.591,7.844-2.195c0-1.541-0.344-2.627-1.031-3.258
			c-0.688-0.63-1.609-0.945-2.766-0.945c-0.604,0-1.153,0.089-1.648,0.266c-0.495,0.178-0.778,0.32-0.852,0.43
			s-0.354,0.748-0.844,1.914l-0.109,0.078l-0.609-0.156l-0.125-0.156v-1.938C55.992,35.004,57.794,34.316,59.544,34.316
			 M58.013,47.723c1.386,0,2.755-0.802,4.109-2.406v-4.219c-2.917,0.49-4.734,1.016-5.453,1.578s-1.078,1.433-1.078,2.609
			C55.591,46.91,56.398,47.723,58.013,47.723 M59.544,33.316c-1.961,0-3.979,0.76-6.002,2.259l-0.404,0.3v0.503v1.938v0.351
			l0.219,0.274l0.125,0.156l0.209,0.261l0.324,0.083l0.609,0.156l0.45,0.116l0.379-0.271l0.109-0.078l0.231-0.165l0.109-0.262
			c0.41-0.977,0.607-1.423,0.701-1.626c0.079-0.037,0.209-0.09,0.41-0.163c0.384-0.137,0.825-0.207,1.311-0.207
			c0.905,0,1.589,0.223,2.09,0.683c0.346,0.317,0.57,0.885,0.661,1.665c-5.276,0.815-6.789,1.7-7.466,2.307
			c-1.174,1.054-1.77,2.511-1.77,4.331c0,0.948,0.207,1.78,0.614,2.475c0.414,0.708,1.016,1.264,1.787,1.652
			c0.737,0.372,1.611,0.561,2.599,0.561c0.806,0,1.566-0.146,2.26-0.437l0.124-0.052l0.106-0.083l1.739-1.355l-0.011,0.402
			l-0.011,0.45l0.328,0.307l0.234,0.219l0.319,0.297l0.435-0.031c0.848-0.061,1.58-0.091,2.179-0.091
			c0.626,0,1.313,0.03,2.043,0.091l0.462,0.037l0.327-0.327l0.125-0.125l0.293-0.293v-0.414v-0.625v-0.38l-0.253-0.284l-0.125-0.141
			l-0.264-0.297l-0.396-0.035l-0.891-0.078c-0.058-0.006-0.106-0.012-0.149-0.017c-0.009-0.117-0.016-0.288-0.016-0.534V42.16
			l0.078-3.116c0-1.082-0.218-2.03-0.646-2.843c-0.444-0.841-1.154-1.542-2.111-2.083C62.079,33.586,60.909,33.316,59.544,33.316
			L59.544,33.316z M58.013,46.723c-1.063,0-1.422-0.363-1.422-1.438c0-0.86,0.228-1.456,0.694-1.822
			c0.233-0.183,1.059-0.634,3.837-1.17v2.648C60.055,46.124,59.01,46.723,58.013,46.723L58.013,46.723z"/>
	</g>
</g>
</svg>
