<?xml version="1.0" encoding="utf-8"?>
<!-- Generator: Adobe Illustrator 14.0.0, SVG Export Plug-In . SVG Version: 6.00 Build 43363)  -->
<!DOCTYPE svg PUBLIC "-//W3C//DTD SVG 1.0//EN" "http://www.w3.org/TR/2001/REC-SVG-20010904/DTD/svg10.dtd">
<svg version="1.0" id="Layer_1" xmlns="http://www.w3.org/2000/svg" xmlns:xlink="http://www.w3.org/1999/xlink" x="0px" y="0px"
	 width="82.75px" height="97.875px" viewBox="0 0 82.75 97.875" enable-background="new 0 0 82.75 97.875" xml:space="preserve">
<g>
	<path fill="#FFFFFF" stroke="#000000" stroke-width="2" d="M80.721,90.067c0,3.602-2,5.602-5.678,5.602H5.708
		c-2.032,0-3.679,0-3.679-3.602V5.806c0-3.6,1.646-3.6,3.679-3.6h69.335c3.678,0,5.678,2,5.678,5.6V90.067z"/>
	<line fill="none" stroke="#000000" stroke-width="2" x1="13.167" y1="2.206" x2="13.167" y2="95.669"/>
	<path fill="none" stroke="#000000" stroke-width="2" d="M20.524,9.29H71.84c1.904,0,2.449,1.129,2.449,2.521v74.766
		c0,1.393-0.545,2.521-2.449,2.521H20.524"/>
	<text transform="matrix(1 0 0 1 26.2085 49.3433)" font-family="'PalatinoLinotype-Roman'" font-size="32">Aa</text>
</g>
</svg>
